<?xml version="1.0" encoding="UTF-8"?>
<svg id="Layer_5" data-name="Layer 5" xmlns="http://www.w3.org/2000/svg" xmlns:xlink="http://www.w3.org/1999/xlink" viewBox="0 0 7680 4320">
  <defs>
    <style>
      .cls-1 {
        fill: #050000;
      }

      .cls-2 {
        fill: none;
      }

      .cls-3 {
        fill: #231f20;
      }

      .cls-4 {
        fill: #020000;
      }

      .cls-5 {
        clip-path: url(#clippath);
      }
    </style>
    <clipPath id="clippath">
      <rect class="cls-2" width="7680" height="4320"/>
    </clipPath>
  </defs>
  <g class="cls-5">
    <g>
      <path class="cls-4" d="M7851.75,1153.95c-44.27-93.25-89.74-185.92-136.73-277.82-203.83-398.62-434.8-785.21-710.24-1138.81-250.46-321.53-540.49-622.64-890.53-836-287.99-175.54-617.05-291.06-957.36-275.65-171.49,7.77-339.96,47.15-502.51,100.83-147.16,48.6-291.65,103.24-433.63,165.43-160.24,70.19-317.56,146.92-473.7,225.75-197.12,99.52-390.35,206.96-588.15,305.03-188.23,93.32-386.25,166.61-592.3,208.98-148.54,30.54-298.98,41.95-450.24,47.53-114.53,4.23-231.53,5.39-342.85,35.81-54.89,15-107.51,37.53-155.87,67.57-69.5,43.17-125.57,104.23-177.38,166.84-153.42,185.36-275.89,394.86-413.72,591.59-68.99,98.48-140.94,195.59-222.45,284.16-69.07,75.06-146.67,147.09-238.76,192.88-47.61,23.67-96.96,35.05-148.98,44.77-62.4,11.66-125.24,21.04-188.34,27.98-84.35,9.29-169.8,11.54-254.61,10.25-165.17-2.52-329.82-22.83-491.01-58.81-337.32-75.29-654.43-218.32-954.66-386.94-12.73-37.94-25.44-75.89-38.12-113.84,299.69,166.15,615.61,307.09,950.63,384.2,160.29,36.9,323.99,58.97,488.44,63.89,85.13,2.55,170.4.55,255.32-5.96,64.4-4.94,128.6-12.46,192.4-22.47,51.99-8.15,101.71-17.33,149.57-39.95,92.57-43.76,169.89-116.29,238.22-191.17,82.02-89.88,154-188.64,223.07-288.64,137.44-199.01,259.16-411.75,414.85-597.52,89.51-106.8,194.77-193.14,332.38-226.17,111.21-26.69,227.44-21.35,340.87-20.32,150.43,1.36,300.13-4.88,448.29-32.83,210.78-39.77,412.69-117.18,603.57-213.94,199.34-101.04,393.27-213.32,590.63-318.21,157.16-83.53,315.18-165.62,475.74-242.47,295.15-141.26,608.66-277.09,938.28-304.36,339.44-28.08,675.95,85.52,965.82,255.8,352.1,206.84,647.35,501.04,901.38,817.87,277.75,346.4,511.29,727.15,717.83,1119.58,47.24,89.76,92.98,180.3,137.55,271.42-.89,67.9-1.79,135.8-2.68,203.7Z"/>
      <path class="cls-4" d="M7845.33,1640.38c-45.38-99.2-91.94-197.85-140.04-295.76-203.39-414.03-432.66-816.79-706.24-1188.8-243.74-331.43-524.26-645.68-866.83-877.54-142.28-96.3-294.91-178.12-456.57-236.85-153.06-55.61-307.47-83.96-469.71-92.18-165.96-8.41-331.75,13.47-492.64,53.54-146.41,36.47-290.46,77.35-431.97,130.08-364.53,135.83-706.6,319.47-1055.37,489.92-182.12,89-372.07,158.62-567.53,212.04-150.39,41.1-303.28,69.72-456.51,97.74-116.68,21.33-234.57,43.17-345.28,87.03-55.28,21.9-108.2,49.51-157.49,82.79-70.15,47.37-127.6,110.92-181.75,175.42-143.08,170.4-263.31,358.76-396.98,536.37-127.42,169.31-272.23,355.98-467.67,450.11-95.41,45.95-206.79,60.86-310.58,76.74-84.26,12.9-169.96,18.7-255.13,20.83-169.43,4.22-338.99-11.55-505.02-45.49-341.89-69.88-661.34-216.14-962.64-388.86-12.83-38.01-25.65-76.03-38.46-114.05,299.98,170.73,617.49,315.53,956.47,388.02,164.67,35.21,332.92,53.18,501.34,51.92,84.92-.64,170.66-4.57,254.8-16.41,107.66-15.15,224.77-28.9,323.15-77.78,93.42-46.41,173.05-117.66,244.31-192.83,80.39-84.81,151.91-177.75,220.48-272.23,135.93-187.29,257.55-386.07,405.42-564.46,53.47-64.51,110.57-128.38,181.6-173.86,47.84-30.63,99.29-55.13,153.03-73.49,112.95-38.58,232.89-50.99,350.81-64.75,148.86-17.37,297.06-37.69,443.01-72.51,205.01-48.91,402.89-121.12,591.99-214.11,349.47-171.85,691.6-357.77,1054.57-500.75,138.05-54.38,278.56-98.25,421.05-139.19,164.66-47.32,334.99-77.64,506.75-75.68,159.24,1.82,312.04,25.83,463.6,75.47,167.55,54.88,326.27,134.59,474.19,230.17,346.16,223.67,630.27,532.9,876.6,860.38,273.92,364.17,503.28,759.89,706.03,1167.43,47.4,95.28,93.26,191.31,137.92,287.9-.9,67.9-1.79,135.8-2.69,203.7Z"/>
      <path class="cls-4" d="M7794.33,2260.49c-50.31-109.19-101.77-217.84-154.77-325.75-212.52-432.67-447.84-856.73-726.6-1250.6-237.85-336.07-511.06-657.35-840.65-907.1-135.68-102.81-281.9-192.66-438.48-260-145.12-62.41-297.23-100.28-453.37-122.82-305.57-44.1-612.67,16.88-901.15,117.43-167.94,58.54-331.39,129.49-492.29,205.06-194.37,91.29-382.77,194.34-576.35,287.11-316.49,151.67-650.08,263.69-969.07,409.58-118.01,53.98-233.4,114.3-340.15,188.41-129.19,89.69-241.1,199.15-345.02,316.71-129.26,146.22-249.52,300.56-386.67,439.69-128.25,130.11-278.82,257.66-459.21,305.45-96.14,25.47-195.78,39.67-293.92,55-83.1,12.98-166.86,21.92-250.91,25.58-167.57,7.3-336.02-7.66-500.22-41.55-350.35-72.31-673.35-231.99-977.83-415.41-12.79-38.08-25.59-76.15-38.4-114.22,303.21,181.54,624.44,339.57,971.98,414.22,162.78,34.96,329.77,51.78,496.26,47.33,85.72-2.29,171.26-9.95,256.17-21.85,98.82-13.86,198.9-29.3,295.44-55,187.53-49.94,340.12-193.52,467.87-332.62,138.55-150.86,259.59-316.48,391.86-472.66,101.03-119.29,209.43-229.03,341.88-313.26,108.11-68.75,225.9-120.19,345.41-165.53,320.35-121.52,649.69-218.46,961.09-363.08,199.91-92.85,393.27-199.37,592.77-293.24,159.34-74.98,320.94-145.79,486.69-205.5,289.11-104.14,601.59-176.35,910.34-144.89,157.34,16.03,310.76,48.84,458.07,106.94,156.85,61.86,304.15,146.28,441.13,244.24,337.06,241.02,614.9,559.05,856.31,893.31,278.89,386.16,513.52,803.29,724.09,1230.01,51.92,105.22,102.27,211.2,151.44,317.73-1.25,67.09-2.51,134.19-3.76,201.28Z"/>
      <path class="cls-4" d="M7830.77,2739.71c-51.19-113.48-103.39-226.5-156.98-338.86-213.02-446.6-446.04-886.2-718.45-1299.71-231.06-350.74-494.29-687.55-809.16-967.41-127.84-113.63-265.73-216.83-415.03-300.66-68.11-38.24-138.61-72.7-211.18-101.67-71.35-28.48-144.45-47.42-218.04-68.65-156.15-45.03-318.15-65.93-480.62-59.28-140.78,5.76-280.68,35.3-415.79,74.09-364.1,104.53-704.05,280.25-1039.13,453.42-326.79,168.88-666.84,311.32-987.32,492.52-258.25,146.02-491.24,323.13-701.08,532.97-247.14,247.14-475.86,556.12-813.11,684.92-87.76,33.52-181.76,49.74-274.18,64.78-83.82,13.64-166.57,31.51-251.06,41.33-173.64,20.19-349.06,16.04-521.75-10.99-355.19-55.61-683.21-208.49-990.04-390.62-12.86-38.36-25.73-76.71-38.63-115.06,306.15,180.17,632.92,331.58,985.92,389.54,171.58,28.17,346.08,34.3,519.11,16.96,84.78-8.5,168.08-24.38,252.13-37.68,94.5-14.95,191.42-30.72,280.66-66.29,172.21-68.65,315.26-194.8,443.35-325.69,130.55-133.41,248.81-278.18,378.65-412.25,101.33-104.63,211.93-201.74,331.36-285.28,116.01-81.15,240.13-149.88,366.7-212.99,327.2-163.15,669.52-293.73,994.93-460.6,337.55-173.09,677.5-350.37,1041.79-461.22,294.19-89.52,599.28-119.86,900.64-45.93,74.52,18.28,148.32,34.69,220.71,60.78,73.68,26.56,145.43,58.88,214.84,95.12,151.66,79.19,292.23,178.55,422.61,289.05,320.1,271.3,586.59,603.83,819.92,950.88,272.95,405.96,505.41,839,716.85,1279.69,52.66,109.76,103.9,220.19,154.09,331.1-.9,67.91-1.8,135.81-2.7,203.72Z"/>
      <path class="cls-4" d="M7807.72,2981.1c-52.62-117.12-106.24-233.78-161.26-349.79-215.09-453.56-449.24-900.65-722.37-1322.26-228.2-352.25-487.3-692.38-796.9-977.53-125.19-115.31-260.25-220.78-406.9-307.54-136.98-81.03-280.92-136.61-431.95-184.98-152.49-48.84-311.31-75.39-471.58-74.11-141.71,1.13-285.01,30.33-421.14,67.72-367.24,100.88-709.67,277.65-1046.23,452.01-324.64,168.18-655.05,324.38-960.45,526.93-254.46,168.77-481.61,370.45-699.27,583.82-241.23,236.47-481.7,500.97-811.99,609.48-87.17,28.64-178,40.23-267.1,60.58-81.26,18.55-163.37,33.62-246.16,43.45-174.36,20.7-351.05,15.09-524.17-13.8-356.06-59.42-682.55-219.21-988-405.96-12.81-38.41-25.63-76.8-38.48-115.2,305.22,184.4,630.91,342.05,985.02,403.11,172.17,29.69,347.96,36.88,521.79,18.76,82.8-8.63,165.02-22.4,246.44-39.71,91.38-19.43,184.72-29.3,273.95-58.37,339.16-110.49,575.69-404.9,818.29-649.24,210.74-212.25,440.29-400.35,696.56-555.06,311.02-187.76,644.31-332,966.79-497.97,340.17-175.06,682.17-355.71,1050.43-465.26,136.46-40.59,279.26-73.42,421.93-80.19,160.15-7.6,320.1,11.45,474.46,54.51,152.58,42.57,297.81,93.7,436.88,170.7,148.84,82.41,286.33,184.36,413.77,296.8,314.17,277.19,577.05,612.44,807.7,960.64,274.44,414.31,508.91,855.27,723.49,1303.08,54.44,113.61,107.46,227.89,159.44,342.64-1.01,67.58-2.01,135.15-2.98,202.73Z"/>
      <path class="cls-4" d="M7767.27,3413.95c-53.16-122.37-107.31-244.31-162.86-365.62-213.1-465.42-444.9-923.8-715.41-1358.79-222.26-357.4-471.38-704.45-775.79-996.98-124.64-119.78-259.16-230.22-405.86-322.03-132.87-83.16-276.82-146.5-423.71-200.53-151.26-55.65-308.85-91.54-470.13-98.83-138.43-6.25-276.9,8.91-412.17,38.01-365.69,78.65-707.56,245.86-1040,411.97-326.83,163.31-643.13,345.29-930.7,571.78-251.19,197.83-473.64,425.74-702.94,647.66-239.11,231.42-500.97,447.73-822.51,552.05-162.59,52.75-329.33,97.49-499.45,117.24-175.29,20.35-354.05,10.89-527.16-22.53-356.67-68.87-678.59-243.58-980.19-439.76-12.78-38.37-25.51-76.75-38.28-115.12,303.84,194.3,627.84,366.23,985.23,434.83,170.59,32.75,346.41,42.85,519.34,25.02,172.26-17.76,343.39-59.96,509.59-107.58,324.3-92.93,583-322.33,820.62-550.98,224.83-216.34,445.8-436.45,694.52-625.83,290.93-221.53,609.7-397.98,934.79-563.67,335.91-171.21,677.62-345.31,1044.73-439.6,138.24-35.51,280.21-58.11,423.15-59.08,158.09-1.07,315.74,30.1,465.13,80.55,149.22,50.39,295.62,110.37,431.08,191.22,148.09,88.38,284.05,196.16,409.9,313.77,306.24,286.21,559.97,628.14,784.82,980.37,273.3,428.12,507.31,881.12,722.63,1340.73,55.95,119.42,110.49,239.5,164.01,360.03-.88,67.24-1.62,134.48-2.39,201.72Z"/>
      <path class="cls-4" d="M7805.48,4655.84c-55.09-132.35-110.94-264.39-167.87-395.97-111.31-257.27-226.56-512.87-347.66-765.69-98.27-205.15-209.83-400.21-350.93-579.14-114.01-144.57-241.62-277.53-360.98-417.56-133.56-156.69-250.25-326.16-374.51-490.11-254.06-335.23-523.25-672.11-847.38-942.93-74.53-62.27-153.51-119.41-232.87-175.33-79.17-55.79-161.96-109.31-252.25-145.39-124.24-49.63-260.62-78.78-394.27-83.57-334.62-12.01-647.1,137.51-936.41,288.61-141.37,73.83-282.94,145.99-419.15,229.2-146.46,89.47-286.08,189.42-417.91,299.33-122.22,101.9-237.41,211.76-349.25,324.87-51.48,52.06-102.3,104.76-153.2,157.38-64.25,66.43-121.36,138.55-175.85,213.17-253.09,346.61-446.11,744.4-763.71,1040.1-81.72,76.08-168.64,148.56-268.03,200.58-41.36,21.65-90.59,30.64-136.13,39.59-41.1,8.08-82.67,13.86-124.44,16.97-187.18,13.93-372.41-32.66-543.68-105.7-381.2-162.58-690.63-450.57-1003.58-714.27-9.98-42.7-23.42-83.84-36.29-125.7,318.81,239.24,635.13,501.25,1015.69,636.3,175.43,62.26,362.77,96.56,548.85,74.67,88.54-10.42,181.22-29.31,263.45-64.53,97.26-41.66,186.88-103.4,268.11-170.66,324.39-268.6,528.2-648.22,786.16-974.51,99.94-126.41,213.47-241.58,327.4-355.32,110.16-109.98,224.65-215.73,346.57-312.63,133.69-106.25,276-199.84,424.74-283.62,141.54-79.72,288.69-147.36,435.29-217.01,288.85-137.24,602.48-261.98,927.49-258.2,134.5,1.57,274.45,23.15,400.61,70.82,90.13,34.06,174.34,82.6,254.92,135,78.12,50.81,156.66,102.2,230.7,158.86,317.94,243.27,583.73,556.56,828.9,870.62,127.42,163.21,245.37,333.31,380.21,490.65,118.55,138.33,244.46,270.37,357.51,413.37,139.75,176.76,251.47,368.93,349.84,571.25,120.68,248.23,235.34,499.36,345.81,752.29,56.65,129.71,112.14,259.92,166.79,390.48-.9,67.91-1.79,135.83-2.69,203.74Z"/>
      <path class="cls-4" d="M7784.17,5410.64c-58.57-142.59-117.64-284.97-177.63-426.97-233.79-553.4-482.82-1100.69-763.05-1632.29-122.38-232.15-250.86-461.45-391.8-682.91-114.17-179.39-239.25-351.54-368.52-520.3-119.45-155.93-244.05-308.44-379.78-450.56-113.71-119.08-235.79-232.33-372.6-324.58-68.02-45.87-140.81-84.32-211.21-126.35-74.01-44.19-149.02-88.68-230.31-118.29-125.66-45.76-255.16-83.09-389.17-92.09-339.11-22.79-658.84,137.11-946.85,297.35-70.11,39.01-142.11,74.56-211.84,114.24-68.86,39.19-135.89,81.94-202.09,125.45-150.65,98.98-294.67,205.98-429.19,326.15-114.97,102.71-222.51,213.16-327.49,325.97-118.49,127.33-237.83,251.84-336.32,395.87-303.58,444-518.62,950.42-897.74,1340.17-90.35,92.88-189.08,191.01-305.03,251.4-76.46,39.82-158.83,72.61-240.2,100.86-172.19,59.77-351.02,75.85-532.01,57.75-371.64-37.15-703.27-213.93-1007.34-420.78,38.69-222.48,81.18-444.29,120.31-666.69,307.46,194.2,640.33,356.25,1008.48,382.19,179.07,12.62,355.06-7.45,524.27-68.32,81.8-29.43,158.21-69.97,238.58-102.29,88.11-35.42,168.54-81.56,249.04-131.86,296.02-184.98,470.28-487.05,694.6-744.08,52.32-59.96,111.2-113.11,164.68-171.78,52.72-57.85,104.71-116.35,157.03-174.56,113.25-126,228.45-250.26,350.43-367.9,144.29-139.16,297.93-266.54,457.33-387.94,135.68-103.34,277.3-195.82,418.62-290.98,176.64-118.94,358.37-234.42,553.98-319.87,139.75-61.05,288.24-105.71,441.38-112.3,136.78-5.89,282.12,16.28,409.85,66.35,83.78,32.84,160.72,81.21,235.96,129.98,74.36,48.19,150.39,94.46,221.28,147.74,145.92,109.67,275.72,240.14,397.48,375.66,141.26,157.22,272.13,323.59,398.51,492.9,128.88,172.65,255.82,347.37,372.38,528.63,138.53,215.42,265.22,438.35,385.58,664.36,274.82,516,517.87,1048.45,746.81,1586.17,59.68,140.18,118.41,280.76,176.55,421.59-.98,67.65-1.96,135.3-2.96,202.94Z"/>
      <path class="cls-4" d="M7757.59,7049.61c-81.82-209.79-164.96-419.06-249.94-627.58-152.45-374.1-310.37-746.06-477.59-1113.81-61.93-136.19-128.69-269.71-239.41-373.49-76.48-71.68-168.4-122.22-267.62-155-172.02-56.84-362.34-62.79-520.69-157.65-89.33-53.51-151.85-129.8-207.39-216.47-60.37-94.21-119.19-189.41-177.56-284.87-111.54-182.42-221.11-366.12-337.16-545.73-97.98-151.64-200.16-302.17-319.12-438.34-50.84-58.19-105.78-111.3-163.83-162.22-52.76-46.28-107.46-91.83-169.1-125.94-63.67-35.24-120.06-74.78-171.25-126.94-53.36-54.38-99.68-115.25-143.68-177.3-83.47-117.72-157.26-246.94-260.76-348.83-88.61-87.23-203.63-135.88-327.69-98.47-143.92,43.4-260.16,144.79-361.71,251.62-135.2,142.22-251.13,297.52-357.06,462.55-104.02,162.06-198.64,329.82-299.62,493.74-43.13,70.01-87.42,139.53-136.39,205.65-57.23,77.26-113.52,152.37-163.05,235.2-158.47,265.08-292.68,544.51-436.69,817.51-155.23,294.26-313.49,593.99-518.56,857.28-80.5,103.36-173.16,211.19-288.09,277.43-36.02,20.76-70.07,40.21-111.92,46.43-30.59,4.55-61.7,2.48-91.86-3.99-73.65-15.81-140.55-54.79-205.62-91.19-71.84-40.18-149.6-78.78-231.47-92.66-52.43-8.89-101.56-.87-153.87,4.45-52.41,5.34-105.11,7.84-157.79,7.2-107.92-1.33-215.42-16.22-319.69-44.08-214.51-57.31-408.77-167.63-592.71-289.34-13.18-40.62-26.41-81.23-39.72-121.81,182.08,112.14,373.52,212.63,582.13,264.91,103.95,26.05,210.81,39.83,317.98,40.67,52.15.41,104.32-2.17,156.2-7.46,48.87-4.98,95.84-11.99,145.01-7.12,83.86,8.3,166.74,37.27,244.68,68.16,69.98,27.73,142.51,55.16,218.33,60.06,76.61,4.95,139.34-19.63,204.38-57.39,118.54-68.82,214.18-170,299.1-276.52,206.65-259.21,364.97-557.07,519.95-848.8,143.4-269.95,276.65-546.86,435.61-808.2,49.92-82.07,107.18-155.71,165.1-231.91,47.64-62.68,91.48-128.19,134.34-194.2,102.64-158.08,199.85-319.64,307.13-474.68,108.2-156.36,227.06-301.04,363.05-433.96,106.9-104.49,228.72-201.96,374.19-245.82,121.69-36.69,242.06-15.65,344.89,57.9,110.06,78.72,193.07,190.56,280.42,292.23,96.32,112.12,197.1,212.22,330.02,279.47,64.59,32.68,122.38,77.44,178.5,122.72,57.46,46.36,112.91,94.11,164.21,147.29,123.04,127.53,228.64,271.49,329.19,417.01,117.14,169.53,227.1,343.91,337.88,517.62,59.7,93.61,119.55,187.13,180.6,279.86,57.67,87.6,118.54,168.82,201.64,234.23,149.58,117.74,335.29,170.68,499.26,263.46,97.15,54.98,185.03,124.28,258.17,208.87,98.09,113.45,161.96,246.49,223.72,381.85,165.28,362.27,321.1,728.83,471.62,1097.46,79.66,195.09,157.71,390.83,234.6,587.03-1.11,67.3-2.22,134.6-3.32,201.9Z"/>
      <path class="cls-4" d="M7750.15,7509.37c-85.17-220.63-171.79-440.7-260.4-659.98-162.5-402.15-331.22-801.87-509.78-1197.18-60.4-133.71-129.29-270.27-261.15-346.66-87.08-50.45-187.8-62.01-286.68-53.73-102.45,8.58-202.14,35.31-302.76,54.88-89.89,17.49-185.32,31.68-275.65,9.18-45.08-11.23-87.12-32.04-123.15-61.4-41.32-33.67-68.59-75.21-96.02-120.24-59.41-97.53-116.52-196.44-172.58-295.93-113.69-201.79-222.75-406.15-336.57-607.87-95.14-168.62-192.85-336.93-306.36-494.03-47.75-66.09-99.07-128.62-155.22-187.75-47.76-50.29-98.21-99.58-156.44-137.74-64.67-42.38-117.72-89.54-163.62-152.37-49.27-67.43-88.57-141.81-124.37-217.07-74.39-156.38-130.13-322.56-215.61-473.52-53.1-93.79-136.92-208.36-260.46-185.9-63.46,11.54-124.2,49.26-174.18,88.35-66.02,51.64-122.55,113.58-175.24,178.45-129.98,160.02-237.61,334.81-337.15,515.02-102.26,185.15-195.56,375.09-297.63,560.34-41.8,75.86-85,151.32-134.37,222.56-55.13,79.55-109.81,157.53-158.3,241.54-161.56,279.88-300.72,572.58-449.43,859.33-156.34,301.47-315.41,607.44-517.86,881.16-77.99,105.44-166.09,215.23-277.26,287.46-62.19,40.41-123.5,37.49-185.89-1.5-140.54-87.84-225.53-258.29-389.37-311.19-49.54-15.99-94.83-7.73-145.39-2.14-58.52,6.47-117.46,9.3-176.33,7.91-114.07-2.69-227.36-21.67-336.13-56.12-221.95-70.3-417.15-201.28-600.41-341.71-13.16-40.39-26.26-80.79-39.34-121.21,181.58,131.19,374.19,252.31,590.16,317.72,108.5,32.86,221.14,50.92,334.49,53.33,58.32,1.24,116.7-1.55,174.68-7.87,47.19-5.14,90.8-12.33,137.8-1.55,165.09,37.88,265.15,191.06,415.07,257.23,71.04,31.36,133.46,21.69,198.16-18.5,110.05-68.35,198.3-174.64,275.85-276.62,205.89-270.73,365.8-576.8,522.82-877.38,146.16-279.79,282.76-565.71,442.54-838.14,48.93-83.42,104.26-159.94,160.24-238.45,50.14-70.32,94.57-144.65,137.68-219.43,100.18-173.75,192.99-351.62,294.73-524.49,102.07-173.43,213.1-339.66,345.17-491.77,94.24-108.54,209.62-225.13,354.21-261.1,123.53-30.73,221.88,52.78,289.77,145.97,93.95,128.97,156.99,278.51,234.8,417.15,39.19,69.83,81.4,138.55,132.25,200.6,48.88,59.66,104.25,104.19,169.62,144.22,58.2,35.63,109.31,82,158.1,129.37,58.12,56.43,111.98,115.83,161.87,179.67,116.98,149.7,217.33,312.14,314.46,475.15,114.39,191.99,223.38,387.13,335.85,580.24,57,97.87,114.82,195.28,174.64,291.45,52.11,83.79,115.97,153.39,209.61,190.17,174.67,68.6,370.39,16.07,552.09,29.42,104.44,7.67,205.63,37.33,290.37,100.5,119.43,89.03,185.71,220.81,245.71,353.32,173.41,382.96,337.27,770.23,495.27,1159.79,87.18,214.96,172.45,430.7,256.3,646.98-1.09,67.36-2.17,134.72-3.25,202.08Z"/>
      <path class="cls-4" d="M7727.66,7786.49c-88.57-230.39-178.76-460.15-271.12-689.05-165.42-409.95-337.41-817.31-519.37-1220.21-57.51-127.33-132.06-261.16-269.45-314.87-102.65-40.13-215.17-22.5-317.48,9.09-107.29,33.13-208.76,81.94-313.56,121.74-89.32,33.92-189.17,67.4-285.9,50.77-43.33-7.45-83.81-26.1-117.63-54.18-43.21-35.88-69.41-83.21-97.7-130.81-61.7-103.84-120.45-209.41-177.76-315.73-113.62-210.78-221.34-424.66-332.91-636.52-95.09-180.57-191.97-361.32-305.24-531.31-79.68-119.59-171.84-246.59-291.77-329.07-145.26-99.9-215.52-274.53-272.84-434.84-64.84-181.33-109.28-370.06-181.24-548.83-35.8-88.95-105.15-254.4-229.76-223.2-146.48,36.68-253.81,179.41-337.32,295.03-128.97,178.56-231.92,374.56-329.7,571.43-98.31,197.92-189.22,399.59-291.28,595.64-90.38,173.61-206.81,330.1-301.15,501.45-159.41,289.55-301.53,588.46-452.79,882.28-158.49,307.86-319.82,621.35-527.26,899.81-41.04,55.09-84.45,108.49-132.1,158.04-37.11,38.59-78.24,80.6-125.44,106.89-63.66,35.46-124.42-7.81-168.48-53.46-63.52-65.81-112.29-144.83-167.81-217.14-51.12-66.59-116.38-145.5-201.48-167.22-49.77-12.71-101.96,3.68-151.84,8.79-61.31,6.29-123.07,8.4-184.65,5.7-114.55-5.03-227.8-27.29-335.89-65.47-225.64-79.7-420.55-223.54-603.56-374.29-13.2-39.34-26.27-78.71-39.27-118.12,182.26,145,375.85,282.46,597.75,359.42,107.64,37.33,220.21,59.38,334.03,64.73,58.47,2.75,117.1,1.22,175.38-4.06,52.27-4.73,105.22-19.64,157.28-6.63,83.44,20.86,151.89,88.86,208.03,150.41,58.26,63.88,111.21,135.12,179,189.52,51.81,41.58,113.8,66.25,175.86,30.8,47.38-27.07,88.98-66.55,127.13-105.06,51.22-51.68,97.69-107.76,141.43-165.85,207.39-275.42,368.34-586.3,526.42-891.58,148.05-285.9,287.1-576.97,444.41-857.98,93.7-167.37,210.08-319.15,301.55-487.85,101.72-187.59,193.3-380.51,292.83-569.25,99.5-188.7,205.57-374.55,336.36-543.57,88.23-114.02,198.36-246.99,345.26-283.54,121.03-30.11,201.75,97.01,248.22,187.61,81.61,159.11,132.5,332.59,201.54,497.18,63.67,151.78,140.25,312.88,282.51,405.42,122.93,79.97,220.79,204.63,304.34,323.07,114.68,162.56,212.7,336.69,308.37,510.87,110.24,200.71,216.17,403.75,326.67,604.32,57.87,105.03,116.91,209.44,178.57,312.3,27.55,45.97,53.07,91.55,93.74,127.42,34.9,30.78,76.46,52.78,121.7,63.81,91.15,22.24,187.52,2.19,276.27-21.43,102.51-27.28,202.71-63.57,307.02-83.84,101.64-19.76,209.14-22.71,304.9,22.11,133.69,62.57,207.95,193.9,266.22,322.71,179.33,396.4,348.81,797.23,511.95,1200.55,89.39,220.97,176.74,442.75,262.6,665.12-1.22,66.98-2.42,133.96-3.6,200.94Z"/>
      <path class="cls-4" d="M7720.87,8191.1c-91.81-241.02-185.41-481.36-281.43-720.74-167.49-417.56-341.97-832.37-526.6-1242.66-59.87-133.04-128.85-287.1-277.06-340.18-107.88-38.64-224.43-7.29-326.13,35.12-115.83,48.31-222.98,114.48-335.47,169.66-87.53,42.94-189.76,89.39-289.85,74.29-110.81-16.72-164.37-112.59-217.06-200.52-64.05-106.88-124.29-216.02-182.58-326.14-116.05-219.24-224.16-442.54-334.77-664.54-95.11-190.89-190.91-382.33-302.23-564.43-75.43-123.39-159.74-255.72-277.99-342.72-153.34-112.82-211.38-319.59-257.76-495.24-56.41-213.61-89.41-432.45-143.03-646.68-18.79-75.06-38.79-153.78-77.24-221.6-22.06-38.9-56.4-80.13-106.07-71.02-64.15,11.76-121.4,59.33-166.28,103.83-64.38,63.84-117.3,138.97-165.61,215.37-125.29,198.14-223.51,413.18-319.04,626.78-97.92,218.95-189.34,441.04-293.78,657.02-39.4,81.47-80.44,162.93-129.99,238.8-60.5,92.64-116.35,187.08-168.67,284.65-160.2,298.72-304.97,605.57-458.52,907.7-158.43,311.74-319.33,628.35-523.58,913.21-40.22,56.09-82.56,110.88-129.14,161.86-33.74,36.93-71.09,78.19-114.22,104.43-62.78,38.21-117.59-28.15-150.23-74.81-57.85-82.73-99.86-175.74-151.04-262.53-42.23-71.61-98.77-170.44-185.55-193.62-48.7-13.01-102.87,9.04-150.96,16.59-65.67,10.31-132.08,16.04-198.57,16.15-119.03.2-237.54-18.29-350.72-55.22-232.02-75.71-431-222.83-616.96-376.78-13.45-37.68-26.68-75.43-39.75-113.24,184.86,154.53,382.3,302.44,612.4,381.8,109.31,37.7,223.93,58.64,339.52,61.85,65.18,1.81,130.48-1.83,195.16-10.03,48.8-6.19,100.92-24.59,149.73-10.63,85.09,24.33,144.79,112.12,191.03,181.76,53.74,80.94,99.21,168.53,160.54,244.19,37.09,45.76,93.2,99.97,155.64,66.51,47.13-25.25,87.67-70.2,123.7-108.82,46.17-49.5,88.29-102.63,128.21-157.24,207.12-283.33,369.04-600.4,528.37-912.12,152.41-298.19,295.91-601.25,455.81-895.55,52.52-96.66,109.06-189.66,169.97-281.17,49.48-74.34,90.98-154.01,130.85-233.8,101.88-203.91,192.07-413.48,288.99-619.75,96.8-206.01,197.53-412.48,325.14-601.52,48.86-72.38,101.44-143.07,164.9-203.45,46.95-44.67,104.21-88.67,168.96-102.81,49.15-10.74,89.8,21.12,117.23,58.85,43.16,59.38,67.42,132.91,89.28,202.16,61.93,196.21,100.39,399.04,160.54,595.81,51.41,168.18,115.42,359.29,264.49,465.92,118.98,85.1,206.82,215.4,284.06,337.21,112.59,177.56,209.1,365.17,304.42,552.37,110.23,216.49,217.38,434.57,331.36,649.13,58.21,109.58,118.14,218.29,181.52,324.97,52.55,88.46,108.83,174.1,219.61,187.69,97.62,11.98,196.52-29.03,283.46-68.5,109-49.47,213.5-108.92,325.35-152.04,101.6-39.17,216.46-67.14,323.07-30.71,144.84,49.49,218.39,193.26,277.15,323.62,182.61,405.17,355.29,814.78,521.24,1227.04,95.3,236.75,188.26,474.44,279.48,712.79-1.13,67.21-2.23,134.41-3.31,201.62Z"/>
      <path class="cls-4" d="M7752.14,6500.98c-74.08-187.02-149.2-373.62-225.85-559.6-140.72-341.44-286.13-681.05-440.48-1016.58-66.85-145.32-132.72-288.07-226.06-418.85-68.82-96.42-148.35-184.36-234.66-265.35-150.23-140.96-319.25-261.5-456.69-415.95-74.89-84.16-133.38-178.43-196.73-271.08-60.6-88.62-120.69-177.59-181.21-266.26-110.44-161.83-221.98-323.19-342.25-477.93-102.47-131.84-211.45-260.97-337.79-370.76-56.25-48.88-117.23-91.71-178.19-134.46-58.65-41.13-118.73-80.13-184.79-108.35-128.96-55.1-237.69-147.24-344.76-235.77-96.14-79.5-195.36-162.2-314-205.63-129.15-47.28-268.84-33.16-395.25,16.65-141.91,55.91-260.57,139.2-375.65,238.26-141.75,122.02-266.3,258.98-380.18,407.22-105.7,137.59-202.18,281.8-302.4,423.35-102.55,144.84-220.93,276.54-313.09,428.59-156.76,258.64-289.38,531.7-432.59,797.88-155.16,288.38-314.67,584.62-527.48,835.45-48.12,56.72-100.04,110.42-156.23,159.19-22.42,19.46-45.64,38.13-70.07,55.02-24.3,16.79-50.89,29.17-75.57,45.11-66.15,42.74-141.08,69.05-219.55,76.13-165.44,14.92-326.58-48.28-491.59-50.3-51.33-.63-101.84,7.25-152.93,10.83-50.29,3.52-100.76,4.53-151.15,2.86-100.52-3.33-200.52-17.53-298.15-41.64-200.78-49.57-387.6-140.3-566.78-241.73-13.38-39.38-26.9-78.7-40.6-117.97,175.09,95.85,357.01,181.51,551.22,230.66,96.27,24.36,194.79,39.62,293.99,44.62,101.05,5.1,200.4-8.43,301.15-8.38,167.23.08,335.91,39.39,502.3,8.29,81.7-15.27,159.38-46.82,229.31-91.65,25.87-16.59,53.83-29.19,79.31-46.72,25.66-17.65,50-37.19,73.54-57.57,57.97-50.2,111.69-105.35,161.39-163.72,211.92-248.9,371.22-542.6,525.85-828.98,144.85-268.26,278.46-544.03,438.3-803.88,91.27-148.37,208.66-276.17,312.73-415.36,101.39-135.61,200.42-273.08,309.16-403,208.41-249,459.67-479.98,763.24-604.53,131.6-54,276.46-83.44,417.81-56.33,123.92,23.77,234.56,87.08,339.82,153.96,114.03,72.45,226.27,152.12,352.33,202.7,68.99,27.68,132.11,65.41,194.26,105.92,63.02,41.09,126.92,81.35,186.06,127.96,126.98,100.07,237.51,220.25,340.86,344.05,123.98,148.5,238.22,304.94,350.27,462.54,60.59,85.22,120.47,170.95,180.45,256.6,65.24,93.16,122.54,191.02,191.79,281.52,137.15,179.24,298.18,338.2,441.78,512.04,82.14,99.44,158.41,203.65,225.68,313.75,82.56,135.14,144.72,278.32,210.92,421.71,150.07,325.05,291.28,654.15,428.11,984.97,72.91,176.29,144.45,353.15,215.06,530.37-1.31,66.71-2.63,133.41-3.95,200.12Z"/>
      <path class="cls-4" d="M7750.17,6601.03c-75.03-189.94-151.14-379.45-228.82-568.33-144.86-352.23-294.67-702.52-453.81-1048.56-62.97-136.93-127.53-270.95-219.39-391.35-70.76-92.75-153.66-174.9-244.26-248.2-155.04-125.42-329.94-225.85-469.9-369.52-78.87-80.96-138.51-174.19-201.39-267.43-58.97-87.45-117.3-175.32-175.86-263.05-111.99-167.76-224.5-335.42-345.69-496.74-101.01-134.45-208.11-266.62-332.6-380.23-54.86-50.07-114.37-94.29-174.32-138.02-56.95-41.54-115.51-81.28-180.16-109.93-129.27-57.27-235.14-154.21-337.48-249.51-94.08-87.62-189.43-181.79-307.99-235.73-121.48-55.27-256.75-49.57-380.08-2.12-145.38,55.93-262.88,144.65-378.41,247.39-137.46,122.25-256.76,261.38-366.19,408.96-106.91,144.18-204.19,295.02-306.03,442.73-100.4,145.63-217.81,277.62-309.41,429.23-159.29,263.65-293.94,541.97-439.7,813.13-151.42,281.69-307.22,569.75-512.1,816.96-50.67,61.14-105.48,119.05-165.38,171.25-44.33,38.62-92.12,68.37-142.26,98.46-66.39,39.84-136.47,64.66-214.44,67.3-79.02,2.67-155.37-15.33-231.61-33.66-80.93-19.46-164.79-37.74-248.24-40.36-50.93-1.6-100.69,6.54-151.3,10.64-50.78,4.11-101.78,5.65-152.71,4.41-105.55-2.57-210.59-17.33-312.93-43.26-201.65-51.09-388.54-144.56-567.55-248.61-13.31-39.66-26.75-79.28-40.34-118.84,179.13,99.35,365.66,187.95,565.49,236.67,97.19,23.69,196.65,37.8,296.65,41.34,101.22,3.59,200.97-12.85,301.8-11.74,163.91,1.8,327.49,51.37,491.48,28.21,80.19-11.33,156.51-40.4,224.51-84.3,25.23-16.28,52.52-28.72,77.4-45.86,25.03-17.24,48.8-36.31,71.76-56.2,57.06-49.43,109.86-103.79,158.75-161.28,209.91-246.81,367.89-537.91,521.15-821.74,147.1-272.42,282.42-552.69,444.56-816.68,90.64-147.57,207.08-275.27,308.78-415.08,100.82-138.61,198.57-279.5,305.81-413.31,113.66-141.84,237.82-273.11,378.41-388.54,61.52-50.51,122.96-99.66,190.52-142.08,60.46-37.95,124.65-67.77,190.77-94.41,130.01-52.39,273.95-74.32,410.52-35.6,121.21,34.36,225.9,108.02,326.46,181.34,109.45,79.8,219.1,164.54,345.2,216.66,67.5,27.9,129.11,66.22,189.49,107,61.98,41.86,124.42,83.37,182.1,131.09,125.17,103.55,233.8,226.43,335.65,352.49,124.96,154.66,240.18,316.99,353.77,480.07,59.92,86.02,119.29,172.41,178.97,258.59,63.72,92.02,120.98,187.22,192.2,273.96,137.06,166.93,302.2,307.27,449.04,465.08,84.23,90.53,162.1,186.86,230.06,290.25,85.64,130.28,148.58,270.22,213.7,411.31,153.04,331.59,297.04,667.33,436.46,1004.86,75.61,183.06,149.73,366.72,222.85,550.79-1.32,66.7-2.64,133.41-3.95,200.11Z"/>
      <path class="cls-4" d="M7811.85,4172.84c-54.08-128.12-109.08-255.85-165.34-383.03-212.71-480.87-441.73-955.62-703.2-1412.07-218.86-382.08-460.78-755.34-750.47-1088.03-215.63-247.64-461.61-474.97-755.56-625.92-148.2-76.1-307.71-137.66-469.03-179.2-134.71-34.69-271.53-51.68-410.69-44.08-351.67,19.2-689.3,166-1003,315.12-324.09,154.06-643.36,314.59-930.47,532.27-259.5,196.74-487.3,429.65-712.33,663.99-235.16,244.88-473.95,490.9-788.3,632.77-82.72,37.33-169.19,66.95-255.24,95.6-80.66,26.85-162.33,50.96-245.37,69.32-171.34,37.87-346.66,45.41-520.86,24.4-367.42-44.31-697.81-215.75-1004.08-414.81-33.78-101.58-67.64-203.14-101.33-304.75,306.16,193.48,636.02,357.26,998.76,406.14,174.04,23.45,349.97,20.76,522.9-9.96,171.73-30.52,346.53-78.29,507.43-145.89,312.84-131.44,559.16-360.3,796.89-595.97,227.13-225.16,455.15-448.63,711.76-640.63,293.8-219.82,616.65-390.4,944.89-552.12,324.03-159.65,666.89-315.05,1027.33-367.87,306.3-44.89,609.23,11.26,891.05,135.72,68.84,30.4,137.46,59.18,203.57,95.47,68.83,37.78,135.14,80.08,199.03,125.7,144.79,103.39,277.2,223.5,400.13,351.89,295.22,308.32,537.84,664.74,755.78,1030.53,264.48,443.9,492.6,908.83,703.04,1380.43,54.44,122.01,107.6,244.58,159.82,367.56-2.36,179.15-4.74,358.29-7.1,537.44Z"/>
      <path class="cls-4" d="M7786.84,6127.83c-66.63-166.54-133.99-332.78-202.53-498.54-132.74-321.05-269.42-640.56-414.53-956.24-67.53-146.91-130.02-296.05-204.99-439.44-64.32-123.01-135.22-242.45-210.75-358.88-134.33-207.06-283.76-403.61-423.1-607.21-32.37-47.3-64.16-95-95.02-143.3-30.42-47.61-57.61-97.69-90.41-143.68-60.91-85.39-122.06-170.6-184.26-255.05-112-152.08-227.15-302.29-352.2-443.95-105.16-119.13-217.78-233.73-345.51-328.86-60.33-44.93-125.22-82.03-189.3-121.2-64.18-39.23-128.42-79.39-197.7-109.15-65.49-28.13-131.65-53.61-196.23-84.07-58.52-27.6-116.51-56.35-175.47-83.01-115.05-52.03-235.05-94.63-361.95-103.38-153.45-10.59-299.44,29.31-441.83,82.72-140.55,52.72-272.82,124.69-394.71,212.03-141.91,101.69-274.25,210.91-394.85,337.5-111.75,117.3-213.32,243.57-314.33,370.08-48.49,60.73-96.94,121.51-147.1,180.87-60.35,71.42-118.87,140.69-169.66,219.67-161.44,251.06-291.99,522.03-432.79,784.82-156.82,292.69-317.16,590.6-525.59,850.53-90.32,112.64-195.9,229.63-322.42,302.02-78.74,45.05-157.57,89.02-244.27,117.17-166.03,53.91-338.52,44.75-510.53,41.75-98.19-1.71-196.28,5.19-294.38-1.2-93.98-6.12-187.28-21.11-278.63-44-192.68-48.27-373.87-131.34-547.98-225.6-18.42-49.1-37.31-98.02-57.01-146.62-8.56-21.11-17.26-42.16-26.14-63.14-4.76-11.25-10.61-22.48-14.37-34.1-9.48-29.32-4.23-64.26-2.23-94.17,306.31,211.4,641.98,390.23,1018.39,425.79,180.37,17.04,357.17-1.05,528.13-61.85,84.17-29.94,175.2-62.69,251.05-110.36,132.99-83.58,243.67-206.9,342.41-327.54,214.61-262.18,381.24-562.2,542.58-858.85,146.76-269.85,283.2-547.21,448.84-806.25,54.45-85.15,113.44-165,182.22-239.03,48.73-52.46,97.06-105.29,146.06-157.49,101.7-108.34,206.77-213.58,320.39-309.51,129.39-109.25,268.84-202.85,414.46-288.93,132.03-78.05,269.9-142.14,409.11-206.07,287.52-132.05,588.69-252.45,911.14-207.77,133.2,18.46,264.31,60.31,389.05,109.75,77.1,30.56,148.83,73.04,220.77,113.88,66.16,37.56,134.75,70.5,198.88,111.58,289.15,185.23,518.17,459.87,725.68,729.15,131.11,170.13,256.29,344.7,370.44,526.7,140.22,223.56,268.14,454.76,390.3,688.6,283.31,542.28,535.79,1099.59,772.65,1663.52,63.26,150.6,125.53,301.61,187.33,452.82-2.36,179.17-4.72,358.33-7.08,537.5Z"/>
    </g>
    <g>
      <path class="cls-1" d="M2921.5,4427.5c-65.65-157.65,139.6-219.4,288-791,9.54-36.74,84.67-329.14,265-559,41.73-53.19,101.2-118.47,158-107,53.31,10.76,80.43,84.32,93,121,84.41,246.29,92.38,521.38,107,624,63.24,443.78,661.9,545.72,625,726-53.46,261.22-1376.22,369.65-1536-14Z"/>
      <path class="cls-3" d="M3652.98,4678.12c-26.35,0-52.57-.46-78.65-1.37-105.4-3.69-202.65-14.71-289.04-32.76-196.46-41.05-322.41-115.85-364.25-216.3-31.67-76.05-.24-130.28,56.83-228.74,61.38-105.9,154.14-265.95,231.15-562.58l.18-.7c21.94-84.55,49.67-160,69.07-208.4,54.64-136.31,120.53-254.09,195.83-350.08,40.47-51.58,100.92-118.81,158.49-107.18,55.64,11.24,83.05,91.22,93.37,121.33,65.6,191.41,84.68,396.33,97.31,531.94,3.46,37.17,6.45,69.28,9.71,92.16,36.9,258.97,252.21,398.78,425.22,511.11,120.23,78.07,215.19,139.73,199.78,215.06-10.91,53.3-75.4,103.17-186.49,144.24-102.42,37.86-242.05,66.75-393.17,81.36-75.21,7.27-150.72,10.92-225.35,10.93ZM3619.2,2969.68c-52.96,0-107.1,60.71-144.3,108.13-166.24,211.9-244.65,480.76-264.73,558.11l-.18.7c-77.04,296.76-169.84,456.87-231.25,562.83-56.91,98.18-88.25,152.27-56.77,227.86,41.7,100.14,167.41,174.73,363.53,215.71,167.37,34.97,383.41,43.42,592.74,23.19,151.04-14.6,290.58-43.48,392.92-81.3,110.75-40.94,175.02-90.56,185.86-143.5,15.28-74.65-79.43-136.15-199.34-214.02-85.14-55.28-181.63-117.94-262.3-199.74-93.51-94.82-146.95-196.9-163.36-312.08-3.26-22.9-6.25-55.02-9.72-92.2-12.62-135.55-31.7-340.41-97.26-531.7-10.27-29.96-37.54-109.55-92.63-120.67-4.39-.89-8.79-1.31-13.2-1.31Z"/>
    </g>
    <g>
      <path class="cls-1" d="M-246.5,765.5c132.8,92.25,312.98,58.42,491,25,144.5-27.13,341.07-64.03,477-220,118.35-135.8,69.96-223.27,201-381C1070.67,11.15,1223.49,13.49,1221.5-42.5c-5.49-154.27-1178.33-525.44-1536-34-176.73,242.83-150.19,690.44,68,842Z"/>
      <path class="cls-3" d="M-26.72,825.68c-41.61,0-78.39-4-112.19-12.17-40.64-9.83-75.92-25.4-107.88-47.6-45.01-31.27-83.15-75.83-113.36-132.44-28.52-53.44-48.85-115.34-60.44-183.96-15.28-90.5-14.11-186.71,3.38-278.22,18.23-95.38,53.61-181.17,102.3-248.08,55.51-76.27,133.92-135.84,233.07-177.06,88.35-36.73,193.34-59.07,312.04-66.39,105.06-6.48,218.99-1.21,338.62,15.66,105.26,14.84,213.45,38.76,312.85,69.16,95.94,29.34,182.43,64.51,243.54,99.03,62.38,35.24,95.85,67.7,96.78,93.88.86,24.04-26.92,37.71-68.97,58.39-57.67,28.37-144.81,71.23-230.14,173.95-66.64,80.22-86.75,141.99-106.2,201.73-18.84,57.87-36.63,112.53-94.81,179.28-136.05,156.1-333.27,193.13-477.28,220.16-87.81,16.49-178.6,33.53-262.54,34.64-2.95.04-5.87.06-8.77.06ZM-246.21,765.09c132.63,92.13,314.62,57.96,490.62,24.92,143.87-27.01,340.9-64,476.72-219.84,58.04-66.6,75.81-121.16,94.61-178.93,19.48-59.83,39.62-121.69,106.38-202.06,85.47-102.88,172.73-145.8,230.47-174.21,43.18-21.24,69.25-34.06,68.41-57.46-1.87-52.46-141.52-131.4-339.62-191.99-216.05-66.07-453.37-96.97-651.11-84.77-251.71,15.52-439.95,99.56-544.36,243.04-97.25,133.62-137.68,335-105.51,525.55,24.09,142.68,85.67,254.81,173.39,315.75Z"/>
    </g>
    <rect class="cls-2" x="-7" width="7680" height="4320"/>
  </g>
</svg>